<svg width="67" height="66" viewBox="0 0 67 66" fill="none" xmlns="http://www.w3.org/2000/svg">
<rect x="1" y="0.5" width="65" height="65" rx="7.5" fill="#FFF9F0"/>
<rect x="1" y="0.5" width="65" height="65" rx="7.5" stroke="#FFEACC"/>
<path d="M44.2626 46.0014C44.9029 46.0014 45.4294 45.4892 45.4294 44.863C45.4294 44.2227 44.9029 43.6962 44.2626 43.6962H42.5265V34.2618C42.5265 29.0679 38.5279 25.055 33.334 25.055C28.1543 25.055 24.1557 29.0679 24.1557 34.2618V43.6962H22.3912C21.7651 43.6962 21.267 44.2227 21.267 44.863C21.267 45.4892 21.7651 46.0014 22.3912 46.0014H44.2626ZM34.5293 34.3045V43.6962H32.1671V34.3045C32.1671 33.65 32.6794 33.1091 33.334 33.1091C33.9885 33.1091 34.5293 33.65 34.5293 34.3045ZM20.4417 35.2863C21.1105 35.2863 21.6939 34.7314 21.6939 34.0768C21.6939 33.3937 21.1105 32.8388 20.4417 32.8388H17.7095C17.055 32.8388 16.5 33.4079 16.5 34.0768C16.5 34.7172 17.055 35.2863 17.7095 35.2863H20.4417ZM23.3588 25.8234C23.8284 26.293 24.6111 26.3073 25.0806 25.8234C25.5644 25.3396 25.5502 24.5712 25.0806 24.1016L23.1596 22.1664C22.7042 21.6826 21.9074 21.6826 21.4236 22.1664C20.954 22.6502 20.954 23.4044 21.4236 23.8882L23.3588 25.8234ZM32.1102 21.1845C32.1102 21.8533 32.6652 22.4225 33.334 22.4225C34.017 22.4225 34.572 21.8533 34.572 21.1845V18.4524C34.572 17.7836 34.0028 17.2144 33.334 17.2144C32.6652 17.2144 32.1102 17.7836 32.1102 18.4524V21.1845ZM41.5731 24.1016C41.1035 24.5712 41.0893 25.3396 41.5731 25.8234C42.0712 26.3073 42.8253 26.293 43.2949 25.8234L45.2444 23.8882C45.714 23.4044 45.714 22.6502 45.2444 22.1664C44.7463 21.6826 43.9922 21.6826 43.5226 22.1664L41.5731 24.1016ZM48.9443 35.2863C49.613 35.2863 50.1822 34.7172 50.1822 34.0768C50.1822 33.4079 49.613 32.8388 48.9443 32.8388H46.2121C45.5575 32.8388 44.9882 33.3937 44.9882 34.0768C44.9882 34.7314 45.5575 35.2863 46.2121 35.2863H48.9443Z" fill="#FF9500"/>
</svg>
