<svg width="66" height="66" viewBox="0 0 66 66" fill="none" xmlns="http://www.w3.org/2000/svg">
<rect x="0.5" y="0.5" width="65" height="65" rx="7.5" fill="#FFF9F0"/>
<rect x="0.5" y="0.5" width="65" height="65" rx="7.5" stroke="#FFEACC"/>
<path d="M16 33.5893C16 36.0292 17.6906 37.3688 19.5925 37.3688C20.3909 37.3688 20.9896 37.1415 21.7058 36.687C22.375 36.2684 22.8564 36.5195 22.8564 37.1056V41.5309C22.8564 43.8871 24.0773 45.0951 26.4136 45.0951H29.5483C30.1118 45.0951 30.3584 44.6166 29.9593 43.935C29.5014 43.2053 29.2783 42.5954 29.2783 41.7821C29.2783 39.8446 30.6049 38.1223 33 38.1223C35.3951 38.1223 36.71 39.8446 36.71 41.7821C36.71 42.5954 36.4869 43.2053 36.0407 43.935C35.6416 44.6166 35.8763 45.0951 36.4517 45.0951H39.5864C41.9227 45.0951 43.1437 43.8871 43.1437 41.5309V37.1056C43.1437 36.5195 43.625 36.2684 44.2825 36.687C45.0103 37.1415 45.6091 37.3688 46.3957 37.3688C48.3094 37.3688 50 36.0292 50 33.5893C50 31.1374 48.3094 29.7979 46.3957 29.7979C45.6091 29.7979 45.0103 30.0251 44.2825 30.4796C43.625 30.8982 43.1437 30.6471 43.1437 30.061V25.6357C43.1437 23.2915 41.9227 22.0715 39.5864 22.0715H36.4517C35.8763 22.0715 35.6416 22.5619 36.0407 23.2436C36.4869 23.9732 36.71 24.5832 36.71 25.3965C36.71 27.3341 35.3951 29.0563 33 29.0563C30.6049 29.0563 29.2783 27.3341 29.2783 25.3965C29.2783 24.5832 29.5014 23.9732 29.9593 23.2436C30.3584 22.5619 30.1118 22.0715 29.5483 22.0715H26.4136C24.0773 22.0715 22.8564 23.2915 22.8564 25.6357V30.061C22.8564 30.6471 22.375 30.8982 21.7058 30.4796C20.9896 30.0251 20.3909 29.7979 19.5925 29.7979C17.6906 29.7979 16 31.1374 16 33.5893Z" fill="#FF9500"/>
</svg>
