<svg width="67" height="66" viewBox="0 0 67 66" fill="none" xmlns="http://www.w3.org/2000/svg">
<rect x="1" y="0.5" width="65" height="65" rx="7.5" fill="#FFF9F0"/>
<rect x="1" y="0.5" width="65" height="65" rx="7.5" stroke="#FFEACC"/>
<path d="M25.7241 47.709H44.1517C44.7779 47.709 45.2901 47.2109 45.2901 46.5706C45.2901 46.0725 44.9487 45.6313 44.4933 45.4748C42.7003 44.7633 42.3303 42.4438 44.0949 40.6651C44.6356 40.1244 45.2901 39.4272 45.2901 38.0041V21.6824C45.2901 18.7226 43.8245 17.2142 40.8789 17.2142H25.7667C22.8211 17.2142 21.3555 18.7084 21.3555 21.6824V43.3119C21.3555 46.2432 22.8354 47.709 25.7241 47.709ZM25.8521 45.418C24.4149 45.418 23.6465 44.6496 23.6465 43.2977C23.6465 42.017 24.5572 41.1916 25.9802 41.1916H40.58C40.7651 41.1916 40.9358 41.1774 41.0781 41.1489C40.4093 42.6289 40.5232 44.1942 41.2773 45.418H25.8521ZM25.4252 39.0286C24.9841 39.0286 24.6141 38.6588 24.6141 38.2034V20.231C24.6141 19.7756 24.9841 19.4199 25.4252 19.4199C25.8663 19.4199 26.2506 19.7756 26.2506 20.231V38.2034C26.2506 38.6588 25.8663 39.0286 25.4252 39.0286Z" fill="#FF9500"/>
</svg>
