<svg width="24" height="25" viewBox="0 0 24 25" fill="none" xmlns="http://www.w3.org/2000/svg">
<g id="Icon">
<g id="Union">
<path d="M12.001 15.5C13.6578 15.5 15.001 14.1569 15.001 12.5C15.001 10.8431 13.6578 9.5 12.001 9.5C10.3441 9.5 9.00098 10.8431 9.00098 12.5C9.00098 14.1569 10.3441 15.5 12.001 15.5Z" fill="#4C4C4D"/>
<path fill-rule="evenodd" clip-rule="evenodd" d="M1.32439 11.9467C2.81164 7.47571 7.02889 4.25 12.0015 4.25C16.9718 4.25 21.1874 7.47271 22.6765 11.9405C22.7969 12.3015 22.797 12.6922 22.6769 13.0533C21.1896 17.5243 16.9723 20.75 11.9997 20.75C7.02945 20.75 2.81381 17.5273 1.32472 13.0595C1.20437 12.6985 1.20426 12.3078 1.32439 11.9467ZM17.251 12.5C17.251 15.3995 14.9005 17.75 12.001 17.75C9.10148 17.75 6.75098 15.3995 6.75098 12.5C6.75098 9.6005 9.10148 7.25 12.001 7.25C14.9005 7.25 17.251 9.6005 17.251 12.5Z" fill="#4C4C4D"/>
</g>
</g>
</svg>
