<svg width="34" height="34" viewBox="0 0 34 34" fill="none" xmlns="http://www.w3.org/2000/svg">
<g id="Icon">
<path id="Vector (Stroke)" fill-rule="evenodd" clip-rule="evenodd" d="M8.5 17C8.5 16.2958 9.07084 15.725 9.775 15.725H21.0595L17.3913 12.3941C16.8837 11.906 16.8679 11.0989 17.3559 10.5913C17.844 10.0837 18.6511 10.0679 19.1587 10.556L25.1087 16.081C25.3587 16.3213 25.5 16.6532 25.5 17C25.5 17.3468 25.3587 17.6787 25.1087 17.9191L19.1587 23.4441C18.6511 23.9321 17.844 23.9163 17.3559 23.4087C16.8679 22.9011 16.8837 22.094 17.3913 21.606L21.0595 18.275H9.775C9.07084 18.275 8.5 17.7042 8.5 17Z" fill="#262626"/>
</g>
</svg>
