<svg width="34" height="34" viewBox="0 0 34 34" fill="none" xmlns="http://www.w3.org/2000/svg">
<g id="Icon">
<path id="Vector (Stroke)" fill-rule="evenodd" clip-rule="evenodd" d="M25.5 17C25.5 17.7042 24.9292 18.275 24.225 18.275H12.9405L16.6087 21.606C17.1163 22.094 17.1321 22.9011 16.6441 23.4087C16.156 23.9163 15.3489 23.9321 14.8413 23.4441L8.89129 17.9191C8.64129 17.6787 8.5 17.3468 8.5 17C8.5 16.6532 8.64129 16.3213 8.89129 16.081L14.8413 10.556C15.3489 10.0679 16.156 10.0837 16.6441 10.5913C17.1321 11.0989 17.1163 11.906 16.6087 12.3941L12.9405 15.725H24.225C24.9292 15.725 25.5 16.2959 25.5 17Z" fill="#262626"/>
</g>
</svg>
