<svg width="30" height="30" viewBox="0 0 30 30" fill="none" xmlns="http://www.w3.org/2000/svg">
<g id="Icon" clip-path="url(#clip0_38_3002)">
<path id="Vector" d="M29.7083 15.3456C29.7083 14.3259 29.6256 13.3007 29.4493 12.2976H15.3008V18.0738H23.4029C23.0667 19.9368 21.9864 21.5848 20.4046 22.632V26.3799H25.2383C28.0768 23.7674 29.7083 19.9092 29.7083 15.3456Z" fill="#4285F4"/>
<path id="Vector_2" d="M15.2989 30.001C19.3445 30.001 22.7562 28.6727 25.242 26.3799L20.4082 22.6319C19.0634 23.5469 17.3272 24.065 15.3044 24.065C11.3911 24.065 8.07311 21.4249 6.88259 17.8754H1.89453V21.739C4.44092 26.8043 9.6274 30.001 15.2989 30.001Z" fill="#34A853"/>
<path id="Vector_3" d="M6.87895 17.8753C6.25063 16.0124 6.25063 13.9951 6.87895 12.1322V8.26849H1.89641C-0.231095 12.507 -0.231095 17.5005 1.89641 21.739L6.87895 17.8753Z" fill="#FBBC04"/>
<path id="Vector_4" d="M15.2989 5.93708C17.4374 5.90401 19.5043 6.70871 21.0531 8.18583L25.3356 3.90327C22.6239 1.35688 19.0248 -0.0430825 15.2989 0.00101083C9.6274 0.00101083 4.44092 3.19778 1.89453 8.26851L6.87708 12.1322C8.06209 8.57716 11.3856 5.93708 15.2989 5.93708Z" fill="#EA4335"/>
</g>
<defs>
<clipPath id="clip0_38_3002">
<rect width="30" height="30" fill="white"/>
</clipPath>
</defs>
</svg>
