<svg width="66" height="66" viewBox="0 0 66 66" fill="none" xmlns="http://www.w3.org/2000/svg">
<rect x="0.5" y="0.5" width="65" height="65" rx="7.5" fill="#FFF9F0"/>
<rect x="0.5" y="0.5" width="65" height="65" rx="7.5" stroke="#FFEACC"/>
<path d="M28.9399 49.8251H37.0579C41.6816 49.8251 43.9669 47.4514 43.927 42.704C43.8738 37.2823 43.8473 33.3441 43.7144 30.3905C43.3292 21.7049 40.9243 19.1559 33.0056 19.1559C25.0868 19.1559 22.6687 21.7049 22.2834 30.3905C22.1505 33.3441 22.124 37.2823 22.0708 42.704C22.031 47.4514 24.3162 49.8251 28.9399 49.8251ZM28.5546 44.4708C27.412 44.4708 26.6812 43.7155 26.6812 42.5827V35.6234C26.6812 34.477 27.412 33.7217 28.5546 33.7217H37.4565C38.5859 33.7217 39.3166 34.477 39.3166 35.6234V42.5827C39.3166 43.7155 38.5859 44.4708 37.4565 44.4708H28.5546ZM26.6812 38.9143H39.3166V37.3092H26.6812V38.9143ZM33.0056 16C30.4546 16 28.6609 17.7533 28.6609 20.1405H30.5343C30.5343 18.8322 31.544 17.9016 33.0056 17.9016C34.4537 17.9016 35.4769 18.8322 35.4769 20.1405H37.3502C37.3502 17.7533 35.5433 16 33.0056 16Z" fill="#FF9500"/>
</svg>
