<svg width="34" height="35" viewBox="0 0 34 35" fill="none" xmlns="http://www.w3.org/2000/svg">
<g id="Icon">
<path id="Vector (Stroke)" fill-rule="evenodd" clip-rule="evenodd" d="M25.5 17.5C25.5 18.2042 24.9292 18.775 24.225 18.775H12.9405L16.6087 22.106C17.1163 22.594 17.1321 23.4011 16.6441 23.9087C16.156 24.4163 15.3489 24.4321 14.8413 23.9441L8.89129 18.4191C8.64129 18.1787 8.5 17.8468 8.5 17.5C8.5 17.1532 8.64129 16.8213 8.89129 16.581L14.8413 11.056C15.3489 10.5679 16.156 10.5837 16.6441 11.0913C17.1321 11.5989 17.1163 12.406 16.6087 12.8941L12.9405 16.225H24.225C24.9292 16.225 25.5 16.7959 25.5 17.5Z" fill="#262626"/>
</g>
</svg>
