<svg width="34" height="35" viewBox="0 0 34 35" fill="none" xmlns="http://www.w3.org/2000/svg">
<g id="Icon">
<path id="Vector (Stroke)" fill-rule="evenodd" clip-rule="evenodd" d="M8.5 17.5C8.5 16.7958 9.07084 16.225 9.775 16.225H21.0595L17.3913 12.8941C16.8837 12.406 16.8679 11.5989 17.3559 11.0913C17.844 10.5837 18.6511 10.5679 19.1587 11.056L25.1087 16.581C25.3587 16.8213 25.5 17.1532 25.5 17.5C25.5 17.8468 25.3587 18.1787 25.1087 18.4191L19.1587 23.9441C18.6511 24.4321 17.844 24.4163 17.3559 23.9087C16.8679 23.4011 16.8837 22.594 17.3913 22.106L21.0595 18.775H9.775C9.07084 18.775 8.5 18.2042 8.5 17.5Z" fill="#262626"/>
</g>
</svg>
